<!DOCTYPE svg PUBLIC "-//W3C//DTD SVG 1.1//EN" "http://www.w3.org/Graphics/SVG/1.1/DTD/svg11.dtd">
<!-- Uploaded to: SVG Repo, www.svgrepo.com, Transformed by: SVG Repo Mixer Tools -->
<svg version="1.1" id="Layer_1" xmlns="http://www.w3.org/2000/svg" xmlns:xlink="http://www.w3.org/1999/xlink" viewBox="0 0 512 512" xml:space="preserve" width="800px" height="800px" fill="#ffffff">
<g id="SVGRepo_bgCarrier" stroke-width="0"/>
<g id="SVGRepo_tracerCarrier" stroke-linecap="round" stroke-linejoin="round"/>
<g id="SVGRepo_iconCarrier"> <rect x="328.581" y="323.926" transform="matrix(-0.7071 0.7071 -0.7071 -0.7071 849.791 351.994)" style="fill:#bbab8c;" width="46.828" height="56.137"/> <polygon style="fill:#bbab8c;" points="348.705,315.595 331.517,332.783 371.212,372.478 355.287,388.403 355.287,388.403 388.4,355.29 "/> <path style="fill:#bbab8c;" d="M510.727,468.258l-42.473,42.473c-1.691,1.691-4.434,1.691-6.125,0L350.606,399.208 c-1.691-1.691-1.691-4.434,0-6.125l42.473-42.473c1.691-1.691,4.434-1.691,6.125,0l111.522,111.522 C512.418,463.824,512.418,466.567,510.727,468.258z"/> <path style="fill:#bbab8c;" d="M393.08,350.609l-14.194,14.194L496.534,482.45l14.194-14.194c1.691-1.691,1.691-4.434,0-6.125 L399.205,350.609C397.513,348.918,394.771,348.918,393.08,350.609z"/> <ellipse transform="matrix(-0.7071 -0.7071 0.7071 -0.7071 197.281 476.2839)" style="fill:#bbab8c;" cx="197.282" cy="197.284" rx="194.294" ry="200.217"/> <path style="fill:#bbab8c;" d="M338.848,55.706C298.55,15.408,244.426-2.96,190.816,0.387 c45.248,2.802,89.291,21.192,123.417,55.319c75.879,75.879,74.006,200.774-4.183,278.964 c-36.663,36.663-83.598,56.547-130.932,59.502c55.359,3.429,112.523-16.478,155.546-59.502 C412.854,256.48,414.727,131.584,338.848,55.706z"/> <ellipse transform="matrix(-0.7071 -0.7071 0.7071 -0.7071 197.281 476.2838)" style="fill:#ded0b6;" cx="197.282" cy="197.284" rx="161.087" ry="165.992"/> <path style="fill:#bbab8c;" d="M200.588,360.616c7.867-0.393,15.725-1.358,23.51-2.877c1.024-0.2,2.047-0.405,3.068-0.625 c0.838-0.18,1.675-0.367,2.511-0.56c1.05-0.243,2.098-0.499,3.144-0.762c0.783-0.197,1.566-0.39,2.346-0.598 c1.299-0.346,2.594-0.718,3.887-1.097c0.54-0.158,1.084-0.304,1.623-0.469c1.722-0.524,3.437-1.079,5.145-1.66 c0.673-0.228,1.344-0.475,2.015-0.712c1.138-0.403,2.274-0.812,3.405-1.241c0.723-0.274,1.444-0.555,2.164-0.84 c1.105-0.436,2.208-0.886,3.307-1.347c0.685-0.287,1.371-0.573,2.054-0.869c1.264-0.55,2.521-1.123,3.774-1.705 c0.493-0.228,0.99-0.446,1.48-0.68c1.712-0.815,3.413-1.663,5.103-2.54c0.496-0.258,0.986-0.531,1.48-0.793 c1.229-0.653,2.453-1.317,3.669-2.002c0.621-0.351,1.24-0.71,1.858-1.07c1.104-0.641,2.203-1.295,3.296-1.964 c0.612-0.375,1.225-0.749,1.833-1.131c1.178-0.741,2.346-1.503,3.51-2.276c0.485-0.322,0.973-0.634,1.456-0.963 c1.624-1.103,3.237-2.235,4.832-3.401c0.29-0.212,0.575-0.437,0.865-0.652c1.311-0.971,2.613-1.962,3.903-2.975 c0.531-0.417,1.055-0.846,1.581-1.27c1.056-0.851,2.106-1.714,3.146-2.594c0.551-0.467,1.101-0.936,1.648-1.41 c1.058-0.917,2.104-1.854,3.144-2.802c0.474-0.432,0.953-0.858,1.423-1.296c1.489-1.387,2.965-2.798,4.415-4.249l0,0 c0.984-0.984,1.95-1.978,2.904-2.98c0.301-0.315,0.594-0.634,0.892-0.952c0.654-0.697,1.305-1.396,1.946-2.102 c0.333-0.367,0.662-0.735,0.991-1.104c0.605-0.678,1.204-1.359,1.797-2.044c0.316-0.365,0.631-0.731,0.943-1.098 c0.627-0.737,1.245-1.48,1.857-2.225c0.253-0.309,0.51-0.615,0.761-0.926c0.812-1.003,1.612-2.011,2.397-3.026 c0.04-0.052,0.082-0.103,0.122-0.155c0.865-1.122,1.714-2.252,2.548-3.39c0.092-0.126,0.181-0.253,0.273-0.38 c0.716-0.982,1.419-1.971,2.11-2.965c0.173-0.249,0.344-0.5,0.516-0.75c0.616-0.895,1.223-1.794,1.82-2.698 c0.17-0.258,0.339-0.515,0.507-0.773c0.619-0.95,1.228-1.903,1.827-2.863c0.118-0.189,0.238-0.379,0.356-0.568 c2.208-3.57,4.272-7.201,6.189-10.887c0.024-0.047,0.048-0.093,0.071-0.14c0.605-1.165,1.194-2.337,1.77-3.512 c0.197-0.404,0.39-0.81,0.593-1.204c0.426-0.824,0.791-1.676,1.174-2.521c0.058-0.129,0.119-0.258,0.178-0.387 c1.149-2.517,2.235-5.055,3.253-7.612l-0.874-2.322c-32.33-24.403-59.764-55.112-80.423-90.656l0,0l-2.327-36.576L244.97,77.486 c-4.02-9.245-17.344-8.599-20.451,0.993l-14.187,43.808l-33.468,4.513c-4.35,0.587-8.357,2.681-11.32,5.919l-17.472,19.087 c-2.583,2.822-5.968,4.786-9.699,5.628l-56.587,12.764c-10.389,2.351-15.713,13.909-10.754,23.336 c4.264,8.107,18.151,14.703,23.194,22.92c5.584,9.096,10.98,16.629,14.715,18.988c11.5,7.263,69.056,7.868,69.056,7.868 L200.588,360.616z"/> <path style="fill:#bbab8c;" d="M224.151,160.046c2.691,0,4.872-2.182,4.872-4.872c0-2.691-2.182-4.872-4.872-4.872 c-7.468,0-13.545-6.076-13.545-13.545v-15.325l-0.276,0.854l-9.468,1.277v13.194C200.861,149.598,211.31,160.046,224.151,160.046z"/> <circle style="fill:#ded0b6;" cx="174.305" cy="152.783" r="5.546"/> </g>
</svg>