<!DOCTYPE svg PUBLIC "-//W3C//DTD SVG 1.1//EN" "http://www.w3.org/Graphics/SVG/1.1/DTD/svg11.dtd">

<!-- Uploaded to: SVG Repo, www.svgrepo.com, Transformed by: SVG Repo Mixer Tools -->
<svg width="30px" height="30px" viewBox="0 0 1024 1024" class="icon" version="1.1" xmlns="http://www.w3.org/2000/svg" fill="#000000" stroke="#000000">

<g id="SVGRepo_bgCarrier" stroke-width="0"/>

<g id="SVGRepo_tracerCarrier" stroke-linecap="round" stroke-linejoin="round"/>

<g id="SVGRepo_iconCarrier">

<path d="M894.979186 760.898331a24.399187 24.399187 0 0 1-2.026269 9.812917c-7.850129 63.515702-94.981746 114.275841-236.662901 136.972307-46.901115 7.589038-97.596749 10.991409-146.78932 10.991409-48.598717 0-97.332587-3.14128-143.71152-10.532708-150.513191-23.483834-240.389844-78.363063-240.389845-146.785224 0-0.458701 0.130033-0.91433 0.19761-1.440607 0.324572-104.724015 51.741021-184.46318 123.171357-232.737325C260.215336 413.687555 309.930088 104.613435 510.090454 104.613435c0.066553 0 0.131057 0.066553 0.131057 0.066553 0.066553 0 0.131057-0.066553 0.19761-0.066553 199.835794 0 249.68058 307.96218 261.258675 421.976931 78.429616 52.856032 123.30139 138.218376 123.30139 234.307965z" fill="#2e2e2e"/>

<path d="M193.035148 669.51759c73.851825-43.040044 197.417377-65.673029 316.465548-65.673029 120.360792 0 245.300398 23.156191 318.887037 67.113636-16.679092-41.404899-45.132865-76.858976-84.448014-103.287504-1.045387-0.783272-1.697602-1.831731-2.616027-2.746061-9.548755-2.749132-16.876702-10.991409-17.791032-21.457564-16.745644-188.191147-81.504344-389.268914-213.114563-389.268914-0.066553 0-0.131057-0.066553-0.19761-0.066553 0 0-0.063481 0.066553-0.131057 0.066553-121.145088 0-185.57512 170.463596-208.078071 344.397139 37.154751-15.436095 77.056586-23.809429 116.69733-23.809429 13.670917 0 24.726831 11.051818 24.72683 24.723759 0 13.670917-11.05489 24.793383-24.72683 24.793383-92.491657 0-187.208217 52.919513-225.673541 145.214584z" fill="#faeed1"/>

<path d="M572.035516 805.184443c0-34.472171-28.062649-62.53482-62.598301-62.53482-34.472171 0-62.53482 28.062649-62.53482 62.53482 0 34.536676 28.062649 62.598301 62.53482 62.598301 34.536676 0 62.598301-28.062649 62.598301-62.598301z" fill="#FFFFFF"/>

<path d="M844.152495 761.357032c0-45.069384-127.293519-107.996352-334.651799-107.996352-206.178764 0-333.081159 62.206153-334.454189 107.212056v0.324572c0 0.19761-0.131057 0.328667-0.131058 0.526277 0.066553 33.227127 68.225575 77.448734 198.526246 97.791287 12.824164 2.026269 26.427504 3.596909 40.297054 5.037516-10.663766-17.204345-17.074312-37.352361-17.074311-59.068969 0-62.206153 50.565601-112.771754 112.771753-112.771753s112.835234 50.565601 112.835235 112.771753c0 21.715584-6.474027 41.864623-17.137793 59.068969 14.390708-1.507159 28.453773-3.14128 41.670085-5.235126 128.470987-20.53914 197.348777-64.82218 197.348777-97.66023z" fill="#faeed1"/>

<path d="M501.128386 240.869023c-38.592286 0-82.679764 76.795495-84.642552 130.890428-0.458701 13.670917-11.969219 24.334683-25.641161 23.875982-13.670917-0.522182-24.334683-11.970243-23.875981-25.64116 2.616027-71.955589 60.04985-178.642392 134.159694-178.642392 13.670917 0 24.793383 11.055914 24.793383 24.72683s-11.122466 24.790311-24.793383 24.790312z" fill="#2e2e2e"/>

</g>

</svg>